<svg xmlns="http://www.w3.org/2000/svg" width="70" height="70" viewBox="0 0 70 70">
  <defs>
    <style>.a{fill:#5e72e4;}.b{fill:none;}</style>
  </defs>
  <g transform="translate(-763 -2989)">
    <g transform="translate(-4544.626 5076.851)">
      <path class="a" d="M5366.038-2051.681h3.378c1.554,8.457-5.728,19.852-15.475,24.245a26.658,26.658,0,0,1-32.164-8.229,26.838,26.838,0,0,1,.167-32.558c6.634-8.549,20.385-14.7,35.652-6.284l-.192-3.469,3.827-.407c.514,3.662,1,7.084,1.508,10.725l-10.764,1.55c-.2-1.379-.354-2.5-.531-3.745l3.491-.834c-4.786-4.893-16.092-5.138-23.612-.589a22.66,22.66,0,0,0-9.889,26.412,22.83,22.83,0,0,0,23.722,15.706C5356.359-2030.063,5363.945-2038.206,5366.038-2051.681Z" transform="translate(0 0)"/>
      <path class="a" d="M5346.235-2059.013l3.65-1.554,6.974,16.43c5.5-2.291,10.9-4.536,16.459-6.851l1.55,3.628-20.133,8.492C5351.908-2045.57,5349.138-2052.135,5346.235-2059.013Z" transform="translate(-13.67 -8.214)"/>
    </g>
    <rect class="b" width="70" height="70" transform="translate(763 2989)"/>
  </g>
</svg>