<svg xmlns="http://www.w3.org/2000/svg" width="70" height="70" viewBox="0 0 70 70">
  <defs>
    <style>.a{fill:#5e72e4;}.b{fill:none;}</style>
  </defs>
  <g transform="translate(-761 -3181)">
    <g transform="translate(-4006.024 5410.193)">
      <path class="a" d="M4786.989-2161.334q-9.119-9.081-18.247-18.154a1.623,1.623,0,0,1-.013-2.685c2.217-2.186,4.4-4.412,6.6-6.606,1.2-1.194,1.635-1.2,2.859.068a12.46,12.46,0,0,1,1.211,1.778c4.073-3.489,6.758-7.923,12.169-8.8-3.32-7.6-2.993-14.871,1.932-21.61a19.571,19.571,0,0,1,13.429-8.075,20.007,20.007,0,0,1,18.267,6.331c4.92,5.221,6.324,11.529,5.172,18.3a32.423,32.423,0,0,1,4.721,1.2c2.159.9,2.364,1.835,1.32,3.9a60.926,60.926,0,0,1-16.908,20.312,8.155,8.155,0,0,1-5.518,1.908c-5.976-.127-11.956-.044-17.935-.044h-2.41c.832.9,1.365,1.508,1.926,2.085.693.714.9,1.426.1,2.2q-4.042,3.939-8.081,7.885Zm23.161-61.949c-1.14.135-2.29.212-3.417.415a18.121,18.121,0,0,0-13.094,25.563c.6,1.266,1.331,1.857,2.742,1.663a9.219,9.219,0,0,1,8.014,2.438,2.9,2.9,0,0,0,1.791.546c2.257.063,4.527-.1,6.773.075a21.759,21.759,0,0,1,3.975,1.052c.313.087.736.364.915.25,2.059-1.31,4.719-1.721,5.975-4.252a8.308,8.308,0,0,1,2.345-2.886,4.528,4.528,0,0,0,1.814-3.436,25.976,25.976,0,0,0,.08-5.368A18.123,18.123,0,0,0,4810.15-2223.283Zm24.408,26.3a5.719,5.719,0,0,0-8.237,2.179,10.319,10.319,0,0,1-5.475,4.8,5.4,5.4,0,0,0-1.309.727,1.751,1.751,0,0,0-.632,1.023c-.317,3.867-1.948,5.481-5.8,5.526-3.816.045-7.633.008-11.451.014-.89,0-1.875,0-1.863-1.184.011-1.147.959-1.2,1.871-1.2,3.716.015,7.433.02,11.149-.007a6.221,6.221,0,0,0,1.9-.3,2.208,2.208,0,0,0,1.646-2.4,2.313,2.313,0,0,0-1.938-2.2,8.878,8.878,0,0,0-2.081-.255c-2.058-.033-4.122-.092-6.175.014a5.643,5.643,0,0,1-3.883-1.237,6.891,6.891,0,0,0-2.968-1.6,46.518,46.518,0,0,0-7.216-.161,5.292,5.292,0,0,0-2.941.969c-2.635,2.12-5.121,4.424-7.8,6.776,3.264,3.24,6.283,6.176,9.22,9.192.827.85,1.474,1.28,2.653.6a4.617,4.617,0,0,1,2.194-.324c6.428-.022,12.857.027,19.285-.056a4.668,4.668,0,0,0,2.839-.965,95.171,95.171,0,0,0,9.6-9.108C4829.956-2189.442,4832.083-2193.3,4834.558-2196.987Zm-47.231,32.269,5.384-5.523-15.9-16-5.424,5.391Z" transform="translate(0 0)"/>
      <path class="a" d="M4894.693-2193.468c.509.1,1,.173,1.471.309,2.223.644,3.853,4,2.858,6.007a1.61,1.61,0,0,1-1.172.7c-.323.021-.715-.4-1-.7a1.215,1.215,0,0,1-.2-.71c-.076-1.02.288-2.424-.988-2.722a11.893,11.893,0,0,0-4.408-.054c-.465.071-.937,1.15-1.109,1.841a1.806,1.806,0,0,0,1.287,2.246c1.315.475,2.646.9,3.969,1.353,2.931,1,3.909,2.385,3.753,5.322-.12,2.267-1.491,3.6-4.349,4.206-.557.879.514,2.775-1.4,2.793s-1-1.829-1.467-2.756c-3.324-.814-4.528-2.319-4.393-5.419.039-.885.258-1.774,1.3-1.561a2.179,2.179,0,0,1,1.194,1.5c.213.993-.2,2.413,1.141,2.621a12.955,12.955,0,0,0,4.663-.209c.4-.088.734-1.552.66-2.342a2.4,2.4,0,0,0-1.317-1.555c-1.551-.674-3.228-1.055-4.8-1.686a4.837,4.837,0,0,1-1.49-7.853,3.643,3.643,0,0,1,1.792-1c1.045-.155,1.512-.5,1.411-1.616-.076-.823.271-1.506,1.257-1.51s1.244.666,1.27,1.507C4894.638-2194.363,4894.667-2193.967,4894.693-2193.468Z" transform="translate(-83.291 -20.499)"/>
      <path class="a" d="M4798.727-2076.939c-.169.244-.34.757-.6.81a2.055,2.055,0,0,1-1.522-.167,22.54,22.54,0,0,1-2.96-2.977,1.725,1.725,0,0,1-.022-1.583,1.434,1.434,0,0,1,1.388-.266c1.224,1.026,2.336,2.187,3.459,3.327C4798.617-2077.642,4798.613-2077.336,4798.727-2076.939Z" transform="translate(-17.72 -100.725)"/>
    </g>
    <rect class="b" width="70" height="70" transform="translate(761 3181)"/>
  </g>
</svg>