<svg xmlns="http://www.w3.org/2000/svg" width="70" height="70" viewBox="0 0 70 70">
  <defs>
    <style>.a{fill:#5e72e4;}.b{fill:none;}</style>
  </defs>
  <g transform="translate(-333 -2989)">
    <path class="a" d="M545.711,3520.483h-8.964v4.452h-36.2v-4.421h-9.082v-1.327q0-5.514,0-11.028c0-7.578,3.138-12.3,10.2-15.245-.234-.216-.427-.412-.638-.585a10.166,10.166,0,0,1,8.44-17.931,1.641,1.641,0,0,0,1.225-.379,11.276,11.276,0,0,1,15.838,0,1.638,1.638,0,0,0,1.225.378,10.164,10.164,0,0,1,8.52,17.862l-.757.63c.286.127.467.212.652.288,5.647,2.318,9.027,6.506,9.467,12.57C545.99,3510.572,545.711,3515.439,545.711,3520.483Zm-11.349,2.215a2.875,2.875,0,0,0,.091-.479c0-5.585.127-11.175-.039-16.755a12.078,12.078,0,0,0-10.227-11.83,55.093,55.093,0,0,0-8.586-.24c-7.471.02-12.816,5.416-12.833,12.906q-.017,7.606,0,15.213c0,.388.036.776.056,1.184Zm-15.7-31.6a9.035,9.035,0,1,0-9.1-9A9.044,9.044,0,0,0,518.666,3491.1Zm-12.947,3.828-.266-.327c-.279,0-.56-.023-.836,0-5.38.528-10.31,5.252-10.7,10.671-.3,4.163-.138,8.36-.175,12.542a1.246,1.246,0,0,0,.115.343h6.661v-1.241c0-3.671-.02-7.342.006-11.012A14.583,14.583,0,0,1,504.8,3495.5,4.389,4.389,0,0,1,505.719,3494.93Zm37.741,23.293c.02-.4.046-.655.044-.905-.032-3.889.126-7.792-.149-11.665a12.071,12.071,0,0,0-9.189-10.735c-.775-.2-1.586-.267-2.38-.4l-.177.357a2.1,2.1,0,0,1,.477.269,14.865,14.865,0,0,1,4.629,11.155c-.018,3.561,0,7.122,0,10.683v1.238h6.749Zm-17.76-27.264a7.805,7.805,0,0,0,9.7-.918,7.905,7.905,0,0,0,1.275-9.81c-1.729-2.83-5.395-4.441-8.046-3.535A11.6,11.6,0,0,1,525.7,3490.959Zm-14.171,0c-4.415-4.131-5.326-8.914-2.892-14.347a7.8,7.8,0,0,0-8.452,4.292,7.9,7.9,0,0,0,1.961,9.43A7.8,7.8,0,0,0,511.53,3490.959Z" transform="translate(-150.996 -474.172)"/>
    <rect class="b" width="70" height="70" transform="translate(333 2989)"/>
  </g>
</svg>