<svg xmlns="http://www.w3.org/2000/svg" width="70" height="70" viewBox="0 0 70 70">
  <defs>
    <style>.a{fill:#5e72e4;}.b{fill:none;}</style>
  </defs>
  <g transform="translate(-328 -3373)">
    <g transform="translate(-5097.411 5133.016)">
      <path class="a" d="M5506.537-1654.747c0,2.629.064,5.261-.049,7.884a2.383,2.383,0,0,1-1.044,1.722q-6.6,3.442-13.311,6.665a2.494,2.494,0,0,1-1.907-.064c-4.362-2.11-8.674-4.323-13.026-6.453a1.941,1.941,0,0,1-1.269-2.015q.075-7.711,0-15.422a1.942,1.942,0,0,1,1.241-2.033c4.354-2.127,8.663-4.346,13.03-6.445a2.694,2.694,0,0,1,2.06-.013c4.367,2.1,8.677,4.317,13.029,6.447a1.92,1.92,0,0,1,1.269,2.016C5506.49-1659.889,5506.537-1657.317,5506.537-1654.747Zm-28.047-6.449c0,4.792-.035,9.094.049,13.394.009.46.615,1.077,1.1,1.331,2.729,1.441,5.5,2.8,8.268,4.171.59.292,1.21.522,2.069.888,0-4.637.011-8.938-.022-13.239a1.318,1.318,0,0,0-.509-1C5485.941-1657.464,5482.413-1659.222,5478.49-1661.2Zm14.027,19.936c3.916-1.968,7.452-3.709,10.935-5.552.352-.186.524-.985.533-1.5.05-2.913.024-5.827.025-8.741v-4.141c-3.923,1.972-7.452,3.728-10.952,5.537a1.317,1.317,0,0,0-.517,1C5492.505-1650.36,5492.517-1646.058,5492.517-1641.26Zm-12.124-22.156q.026.282.052.565c3.381,1.687,6.746,3.408,10.162,5.019a2.438,2.438,0,0,0,1.776-.222c2.322-1.089,4.606-2.259,6.9-3.416.954-.482,1.886-1.005,3.245-1.733a70.421,70.421,0,0,1-7.221-3.677,6.619,6.619,0,0,0-8.134.011A65.277,65.277,0,0,1,5480.393-1663.416Z" transform="translate(-31.186 -55.105)"/>
      <path class="a" d="M5461.537-1736.561h-2.8c0-1.526-.074-3.03.024-4.522a1.793,1.793,0,0,0-1.33-2.078c-2.439-.957-4.809-2.09-7.247-3.052a1.673,1.673,0,0,1-1.293-1.9c.1-1.674.025-3.356.025-5.166H5428v-2.74h64.312v2.647h-20.958c0,1.858-.056,3.536.021,5.207a1.68,1.68,0,0,1-1.239,1.934c-2.5.97-4.927,2.108-7.409,3.117a1.6,1.6,0,0,0-1.217,1.8C5461.609-1739.8,5461.537-1738.281,5461.537-1736.561Zm7.018-16.672h-16.838a24.837,24.837,0,0,1-.024,3.006c-.162,1.29.415,1.842,1.557,2.265,1.962.726,3.843,1.672,5.8,2.418a3.018,3.018,0,0,0,1.967.092c2.229-.847,4.424-1.795,6.578-2.818a2.009,2.009,0,0,0,.917-1.383A31.106,31.106,0,0,0,5468.555-1753.233Z" transform="translate(-0.077 0)"/>
      <path class="a" d="M5579.723-1605.573v-2.566h11.062v2.566Z" transform="translate(-98.556 -95.984)"/>
      <path class="a" d="M5427.884-1605.5v-2.576h11.011v2.576Z" transform="translate(0 -96.028)"/>
    </g>
    <rect class="b" width="70" height="70" transform="translate(328 3373)"/>
  </g>
</svg>