<svg xmlns="http://www.w3.org/2000/svg" width="70" height="70" viewBox="0 0 70 70">
  <defs>
    <style>.a{fill:#5e72e4;}.b{fill:none;}</style>
  </defs>
  <g transform="translate(-1214 -2989)">
    <path class="a" d="M6192.226-2917.352a3.018,3.018,0,0,1,.13-.284,1.273,1.273,0,0,1,1.237-.82c1.258.048,2.521-.028,3.782-.038.225,0,.309-.054.325-.3a25.29,25.29,0,0,1,5.37-14.069,25.5,25.5,0,0,1,12.375-8.721,23.705,23.705,0,0,1,6.27-1.211c.227-.011.278-.093.281-.3.013-1.357.044-2.713.056-4.07a.582.582,0,0,1,.253-.565c.107-.067.19-.17.292-.245a1.246,1.246,0,0,1,1.585-.009,1.144,1.144,0,0,1,.568,1.061c-.032,1.271.032,2.543.049,3.815,0,.2.038.3.275.318a24.709,24.709,0,0,1,12.04,3.949,25.417,25.417,0,0,1,11.166,15.112,21.487,21.487,0,0,1,.81,5.1.857.857,0,0,0,.021.109,1.945,1.945,0,0,0,.208.026c1.335.023,2.671.061,4.006.054a.928.928,0,0,1,.826.391,1.425,1.425,0,0,1,.374,1.256,1.325,1.325,0,0,1-1.288,1.033c-1.2.037-2.394.046-3.591.066-.169,0-.338,0-.521,0a25.341,25.341,0,0,1-7.533,16.78,25.486,25.486,0,0,1-16.8,7.557c0,.381,0,.77,0,1.16-.01.89-.034,1.78-.034,2.67a1.572,1.572,0,0,1-1.045,1.6h-.572c-.249-.153-.5-.306-.747-.458a.763.763,0,0,1-.345-.748c0-1.346-.034-2.692-.057-4.038,0-.07-.017-.141-.03-.243a6.992,6.992,0,0,1-.741,0,27.254,27.254,0,0,1-5.527-1.095,25.688,25.688,0,0,1-14.174-11.047,24.949,24.949,0,0,1-3.819-11.86c-.015-.243-.131-.266-.324-.269-1.25-.019-2.5-.1-3.75-.048-.735.029-1.027-.385-1.31-.907-.034-.063-.06-.131-.089-.2Zm29.754-22.758a23.12,23.12,0,0,0-21.588,21.6h10.815q1.756-9.04,10.773-10.774Zm13.6,24.41c-1.175,6.035-4.758,9.627-10.785,10.79,0,.047-.007.1-.006.152q0,4.611.009,9.222c0,.381.034.762.058,1.143.013.224.095.357.362.3a7.012,7.012,0,0,1,.723-.1,22.03,22.03,0,0,0,6.238-1.615,22.893,22.893,0,0,0,12.841-13.374,25.156,25.156,0,0,0,1.384-6.137c.031-.267-.126-.3-.321-.314-.434-.023-.868-.056-1.3-.057q-4.468-.01-8.936-.009Zm-35.308.013c.259,1.409.448,2.784.771,4.126a22.281,22.281,0,0,0,5.077,9.679,23.061,23.061,0,0,0,9.927,6.61,27.007,27.007,0,0,0,5.538,1.186c.279.034.331-.113.341-.325.022-.455.057-.91.058-1.366q.01-4.436.008-8.872v-.26q-9.063-1.762-10.789-10.778Zm24.525-13.533a12.046,12.046,0,0,1,7.2,3.536,12.081,12.081,0,0,1,3.52,7.188h.271q4.388,0,8.776-.007c.5,0,1-.032,1.492-.06.176-.01.39-.011.345-.291-.176-1.1-.3-2.2-.543-3.283a22.606,22.606,0,0,0-4.865-9.788,22.885,22.885,0,0,0-8.886-6.494,25.012,25.012,0,0,0-5.928-1.566c-.453-.067-.912-.1-1.381-.151Zm-2.851,2.744a9.562,9.562,0,0,0-7.943,7.96h7.943Zm-7.951,10.79c.761,4.156,4.444,7.816,7.978,7.948v-7.948Zm18.789-2.823a9.615,9.615,0,0,0-7.978-7.977v7.977Zm-7.981,2.822v7.964a9.634,9.634,0,0,0,7.972-7.964Z" transform="translate(-4974.226 5940.937)"/>
    <rect class="b" width="70" height="70" transform="translate(1214 2989)"/>
  </g>
</svg>