<svg xmlns="http://www.w3.org/2000/svg" width="70" height="70" viewBox="0 0 70 70">
  <defs>
    <style>.a{fill:#5e72e4;}.b{fill:none;}</style>
  </defs>
  <g transform="translate(-761 -3373)">
    <g transform="translate(-4806.361 5851.031)">
      <path class="a" d="M5615.656-2333.014c-.482-2.448-.907-4.76-1.407-7.057a1.814,1.814,0,0,1,.8-2.09,15.847,15.847,0,0,0,6.743-10.261c.849-4.951-.729-9.174-4.071-12.809-.49-.533-1.047-1-1.575-1.5a1.347,1.347,0,0,1-.273-1.92c.5-.566,1.2-.563,1.921.046a18.8,18.8,0,0,1,6,8.9,2.937,2.937,0,0,0,4.315,1.577,6.562,6.562,0,0,0,1.38-1.408c.56-.689,1.269-.9,1.871-.469s.668,1.079.213,1.85a5.609,5.609,0,0,1-6.413,2.744c-.169-.041-.34-.071-.6-.123-.068,1.013-.07,1.973-.205,2.914a18.207,18.207,0,0,1-6.889,11.755,1.31,1.31,0,0,0-.543,1.528c.429,1.852.765,3.726,1.128,5.593.411,2.114-.535,3.265-2.682,3.265-2.027,0-4.053,0-6.08-.022a3.042,3.042,0,0,1-3.3-2.718c-.162-.762-.148-1.78-.632-2.189-.417-.353-1.425.031-2.17.021-2.2-.031-4.409-.068-6.61-.162-.637-.027-1.024.03-1.1.775a13.049,13.049,0,0,1-.392,1.859,2.873,2.873,0,0,1-2.892,2.4q-3.445.083-6.9.023a2.257,2.257,0,0,1-2.238-2.833c.361-1.775.736-3.548,1.136-5.314a.89.89,0,0,0-.556-1.2,11.393,11.393,0,0,1-5.047-5.045,1.057,1.057,0,0,0-1.125-.67c-.783.043-1.572.031-2.358,0a2.618,2.618,0,0,1-2.763-2.92q.047-3.765.071-7.53a3.159,3.159,0,0,1,3.394-3.4c1.12.044,1.548-.313,1.975-1.361.665-1.632,1.709-3.107,2.541-4.677a1.9,1.9,0,0,0,.258-1.3,32.086,32.086,0,0,0-1.509-3.663c-.486-1-1.14-1.924-1.658-2.913-.533-1.018-.13-1.834,1.005-1.96,4.166-.464,8.211-.2,11.889,2.127a1.473,1.473,0,0,0,.988.1c1.388-.284,2.757-.661,4.147-.923a1.1,1.1,0,0,1,1.347,1.035,1.2,1.2,0,0,1-.923,1.374c-.085.03-.177.037-.264.06-1.487.393-2.98.76-4.456,1.192a1.827,1.827,0,0,1-1.753-.388c-2.6-1.935-5.586-2.36-8.877-2.246.446.793.814,1.441,1.176,2.093a10.964,10.964,0,0,1,1.522,4.886,2.408,2.408,0,0,1-.473,1.472,16.122,16.122,0,0,0-3.211,6.333,1.4,1.4,0,0,1-1.624,1.218c-.663-.038-1.331,0-2-.007s-.975.3-.991.988c-.051,2.086-.143,4.171-.216,6.257-.056,1.582.034,1.677,1.56,1.678.846,0,1.695.024,2.54-.007a1.355,1.355,0,0,1,1.436.874,9.73,9.73,0,0,0,5.952,5.719,1.242,1.242,0,0,1,.778,1.625c-.433,1.976-.847,3.956-1.265,5.935-.054.259-.087.522-.142.865,2.226,0,4.366.022,6.5-.032.228-.006.568-.422.643-.7.293-1.108.489-2.241.742-3.36.22-.968.633-1.291,1.617-1.135a35.061,35.061,0,0,0,11.015,0c1-.158,1.424.2,1.647,1.222.237,1.092.436,2.193.723,3.271.075.282.407.7.63.707C5611.242-2332.992,5613.382-2333.014,5615.656-2333.014Z" transform="translate(0 -81.46)"/>
      <path class="a" d="M5734.478-2463.384a11.629,11.629,0,0,1-11.529,11.677,11.6,11.6,0,0,1-11.575-11.616,11.58,11.58,0,0,1,11.468-11.708A11.6,11.6,0,0,1,5734.478-2463.384Zm-20.625-.038a9.145,9.145,0,0,0,9.02,9.217,9.2,9.2,0,0,0,9.138-9.126,9.2,9.2,0,0,0-9.047-9.212A9.137,9.137,0,0,0,5713.853-2463.421Z" transform="translate(-113.74)"/>
      <path class="a" d="M5633.362-2291.642a1.221,1.221,0,0,1-1.251-1.717,8.772,8.772,0,0,1,1.733-2.271,1.582,1.582,0,0,1,1.508.018,1.453,1.453,0,0,1,.311,1.389,12.331,12.331,0,0,1-1.646,2.24A1.713,1.713,0,0,1,5633.362-2291.642Z" transform="translate(-48.777 -146.636)"/>
      <path class="a" d="M5754.383-2444.074c.894.243,1.812.42,2.673.75a1.182,1.182,0,0,1,.693,1.706c-.372.689-.93.776-1.693.592a8.7,8.7,0,0,0-2.636-.224,1.277,1.277,0,0,0-.81.968c0,.339.465.82.836.975a8.179,8.179,0,0,0,1.688.25,3.574,3.574,0,0,1,3.281,3.685,3.521,3.521,0,0,1-3.486,3.484,10.833,10.833,0,0,1-3.359-.509,1.217,1.217,0,0,1-.856-1.717c.269-.651.908-.8,1.771-.6a8.036,8.036,0,0,0,2.472.248,1.36,1.36,0,0,0,.9-.987c.01-.351-.493-.783-.863-1.054a1.963,1.963,0,0,0-.967-.162c-2.5-.164-4.068-1.646-3.982-3.78C5750.131-2442.518,5751.882-2443.934,5754.383-2444.074Z" transform="translate(-145.38 -25.329)"/>
    </g>
    <rect class="b" width="70" height="70" transform="translate(761 3373)"/>
  </g>
</svg>