<svg xmlns="http://www.w3.org/2000/svg" width="70" height="70" viewBox="0 0 70 70">
  <defs>
    <style>.a{fill:#5e72e4;}.b{fill:none;}</style>
  </defs>
  <g transform="translate(-333 -3181)">
    <path class="a" d="M1154.1-748.952c2.144.661,4.271,1.384,6.435,1.972q10.749,2.922,21.524,5.747a1.71,1.71,0,0,1,1.478,1.538c1.355,6.5,2.677,13,2.635,19.666a37.246,37.246,0,0,1-1.129,6.414c-.035.186-.179.387-.137.546,1.016,3.922-1.246,7.575-.919,11.456.175,2.072-1.071,2.945-3.18,2.516-.223-.046-.452-.065-.657-.093-1.162,2.646-1.438,2.815-4.227,2.64-.986,2.492-2.074,2.968-4.539,2.405-.54,2.469-1.643,3.307-5.38,2.178l.479,2.017a3.486,3.486,0,0,1-3.633.822q-16.5-4.514-33.041-8.866c-.991-.263-1.522-.689-1.589-1.776-.35-5.674-.926-11.342-1.046-17.02-.048-2.243.864-4.511,1.377-6.759a16.964,16.964,0,0,1,.749-2.44,3.965,3.965,0,0,0-.275-3.255,4.133,4.133,0,0,1-.225-2.381c.443-2.079,1.05-4.125,1.622-6.174a2.721,2.721,0,0,1,2.954-1.717c1.46.352,2.909.748,4.057,1.046.739-.924,1.374-1.655,1.927-2.444a2.372,2.372,0,0,0,.273-1.059,2.488,2.488,0,0,1,3.412-2.354c.771.2,1.541.4,2.469.646a2.435,2.435,0,0,1,2.138-2.809,9.575,9.575,0,0,1,3.133.5l2.742-2.964Zm-23,11.411c-.627,2.339-1.2,4.432-1.733,6.538a1.46,1.46,0,0,0,.128,1.064c1.208,1.731.718,3.439.2,5.263-.744,2.623-1.767,5.316-1.755,7.974.027,5.579.666,11.154,1.016,16.733.06.955.649,1.1,1.382,1.3q13.716,3.659,27.421,7.357c1.7.457,3.41.885,5.313,1.378-.182-.6-.292-.9-.369-1.215-.378-1.54-1.179-3.123-1.037-4.615.362-3.808,1.118-7.581,1.78-11.358a2.7,2.7,0,0,0-.574-2.637c-2.111-2.058-2.077-4.628-1.791-7.268a6.317,6.317,0,0,0,.131-1.556c-.538-3.593-1.1-7.184-1.738-10.76-.061-.343-.691-.72-1.124-.839-5.291-1.461-10.594-2.878-15.894-4.3C1138.718-735.5,1134.977-736.5,1131.1-737.541Zm37.253,45.264c.168-2.368.415-4.61.464-6.855.059-2.732-.1-5.468-.069-8.2.018-1.875.267-3.748.265-5.622,0-1.655-.254-3.308-.307-4.965a8.82,8.82,0,0,0-1.673-5.439,4.226,4.226,0,0,1-.619-2.442,38.787,38.787,0,0,1,.333-4.822c.107-.879-.213-1.1-1.007-1.311-5.31-1.381-10.6-2.831-15.9-4.255-3.288-.884-6.575-1.776-9.874-2.619a3.234,3.234,0,0,0-1.2.185c.321.27.633.552.97.8.1.075.278.044.415.081,6.987,1.882,13.977,3.754,20.954,5.673.456.125,1.1.554,1.172.937.891,4.443,2.364,8.846,1.72,13.453a8.115,8.115,0,0,0,2,6.785,2.334,2.334,0,0,1,.467,1.652c-.579,4.027-1.259,8.039-1.874,12.06C1164.157-694.333,1165.238-692.815,1168.354-692.277ZM1146.682-744.4l-.4.43a4.187,4.187,0,0,0,1.126.783q11.642,3.173,23.3,6.281c3.851,1.03,3.758,1.02,3.921,5.081.157,3.916-.154,7.893,1.122,11.7a9.283,9.283,0,0,1,.274,5.025,5.894,5.894,0,0,0-.023,2.078c.756,4.984,1.276,9.964.218,14.976-.047.221.194.5.409,1.011a4.569,4.569,0,0,0,.319-.722c.484-3.52,1.035-7.033,1.411-10.565.242-2.272.914-4.535.048-6.868a18.68,18.68,0,0,1-.889-11.659c.439-1.609.478-3.164-1.048-4.365a1.542,1.542,0,0,1-.284-1.157,21.876,21.876,0,0,1,.412-2.951c.173-.793-.132-1.134-.845-1.316-1.423-.362-2.838-.751-4.256-1.13Zm25.467,49.757.526-.234c1.241-3.292,1.3-6.765,1.206-10.2-.1-3.7-1.543-7.354-.456-11.121a1.542,1.542,0,0,0-.167-.825c-1.814-5.075-1.312-10.4-1.646-15.629a1.636,1.636,0,0,0-1.439-1.809c-7.364-1.937-14.712-3.936-22.068-5.9-2.494-.668-5-1.307-7.55-1.973-.383,1.354.687,1.223,1.2,1.361,8.625,2.339,17.264,4.629,25.9,6.936.711.19,1.411.421,2.188.655-.191,2.013-.408,3.894-.531,5.782a3.506,3.506,0,0,0,.235,2.158,9.368,9.368,0,0,1,2.079,6.152c.011,3.53.974,7.04.126,10.6a15.363,15.363,0,0,0-.282,3.379c-.032,3.12-.032,6.242.029,9.361C1171.5-695.518,1171.921-695.085,1172.149-694.648Zm8.406-5.19.5-.128c.034-.643.016-1.294.111-1.927.229-1.53.531-3.049.763-4.579a9.252,9.252,0,0,0,.185-2.32,14.553,14.553,0,0,1,.148-4.459,41.508,41.508,0,0,0,.9-7.439c.079-5.963-1.4-11.737-2.554-17.539a1.918,1.918,0,0,0-1.244-1.06q-12.876-3.51-25.783-6.908a4.179,4.179,0,0,0-1.363.112c.356.284.671.718,1.075.828,6.484,1.764,12.981,3.482,19.473,5.22,2.308.618,4.609,1.26,6.9,1.886-.142,1.168-.214,2.161-.392,3.134a3.283,3.283,0,0,0,.849,3.253,2.379,2.379,0,0,1,.491,1.843c-.811,4.62-1.032,9.163.713,13.673a8.406,8.406,0,0,1,.315,3.771c-.4,3.862-.979,7.706-1.444,11.562C1180.153-700.576,1180.427-700.2,1180.555-699.838Z" transform="translate(-788.177 3935.415)"/>
    <rect class="b" width="70" height="70" transform="translate(333 3181)"/>
  </g>
</svg>