<svg xmlns="http://www.w3.org/2000/svg" width="70" height="70" viewBox="0 0 70 70">
  <defs>
    <style>.a{fill:#5e72e4;}.b{fill:none;}</style>
  </defs>
  <g transform="translate(-1194 -3181)">
    <g transform="translate(-4687.714 4960.502)">
      <path class="a" d="M6285.754-1296.093a1.338,1.338,0,0,1-.577-1.614c.148-.581.219-1.181.329-1.772a1.054,1.054,0,0,1,1.25-1,1.01,1.01,0,0,1,.811,1.255,19.9,19.9,0,0,1-.43,2.341c-.078.295-.4.526-.606.786Z" transform="translate(-347.734 -415.429)"/>
      <path class="a" d="M5902.165-1676.685a4.137,4.137,0,0,1-4.38,2.933c-2.71-.084-5.423-.017-8.135-.021a3.824,3.824,0,0,1-3.933-3.9q-.007-12.652,0-25.3a3.819,3.819,0,0,1,3.85-3.849c2.841-.007,5.682,0,8.522,0a3.923,3.923,0,0,1,4.2,3.915c1.04-.678,2.269-.895,2.915-2.147,1.912-3.7,3.912-7.356,5.883-11.026a5.137,5.137,0,0,0,.614-2.657c-.052-1.718-.1-3.443,0-5.158a5.828,5.828,0,0,1,6.028-5.628c2.542.144,4.217,1.649,5.368,3.806a20.794,20.794,0,0,1,1.891,6.917c.356,2.422-.206,4.747-.606,7.091-.217,1.267-.5,2.524-.762,3.853h.736q7.3,0,14.592,0c2.42,0,4.24,1.165,4.858,3.195a5.771,5.771,0,0,1-1.451,6.064.619.619,0,0,0-.152.818,5.844,5.844,0,0,1-1.372,6.683c-.219.208-.406.346-.251.741a5.8,5.8,0,0,1-1.986,7.163c-.05.039-.1.083-.172.147a6.569,6.569,0,0,1,.383,3.716,5.667,5.667,0,0,1-5.41,4.514c-8.049.015-16.1.026-24.146-.032a3.587,3.587,0,0,1-2.179-.816C5905.606-1676.954,5903.965-1676.945,5902.165-1676.685Zm.079-2.191a3.509,3.509,0,0,0,.436,0,6.63,6.63,0,0,1,5.532,1.475,2.822,2.822,0,0,0,1.671.5c2.775.05,5.552.026,8.328.026,4.971,0,9.941.016,14.912,0a3.673,3.673,0,0,0,3.454-5.094.74.74,0,0,0-.837-.589c-.793.049-1.592.02-2.388.011a1.012,1.012,0,0,1-1.142-1.026,1.01,1.01,0,0,1,1.135-1.033c.9-.009,1.813-.063,2.71.014a2.3,2.3,0,0,0,2.172-1.116,3.812,3.812,0,0,0,.314-4.083.785.785,0,0,0-.842-.516c-1.42.035-2.84.017-4.261.013-.782,0-1.215-.362-1.229-1-.015-.677.424-1.055,1.241-1.056,1.722,0,3.443.017,5.164-.018a1.448,1.448,0,0,0,.89-.367,3.74,3.74,0,0,0,.776-4.222.8.8,0,0,0-.861-.577c-1.979.033-3.96.015-5.939.014-.827,0-1.268-.36-1.27-1.028s.435-1.032,1.263-1.033c2.108,0,4.217.005,6.326-.008a1.39,1.39,0,0,0,.722-.175,3.852,3.852,0,0,0,1.344-4.146c-.35-1.207-1.381-1.839-3.053-1.872-.15,0-.3,0-.451,0h-17.386c.5-2.348,1.043-4.661,1.474-7a24.969,24.969,0,0,0,.54-4.592,20.772,20.772,0,0,0-.622-4.2,9.037,9.037,0,0,0-2.1-4.563,3.541,3.541,0,0,0-3.725-1.176,3.524,3.524,0,0,0-2.667,3.08,22.9,22.9,0,0,0-.091,4.18,10.711,10.711,0,0,1-1.354,6.124c-1.482,2.665-2.906,5.362-4.378,8.033a13.109,13.109,0,0,1-1.969,3.214,13.031,13.031,0,0,1-3.291,1.862.892.892,0,0,0-.558.942q.023,10.2.012,20.4Zm-2.063-11.376q0-6.129,0-12.257c0-1.574-.668-2.25-2.221-2.251q-4,0-8,0a1.9,1.9,0,0,0-2.181,2.161q0,12.322,0,24.644a1.888,1.888,0,0,0,2.153,2.122q4,0,8,0c1.565,0,2.246-.675,2.246-2.227Q5900.182-1684.156,5900.181-1690.253Z" transform="translate(0 -41.884)"/>
      <path class="a" d="M6052.625-1751.5c-.2.253-.375.664-.667.784a1.237,1.237,0,0,1-1.066-.095,21.716,21.716,0,0,1-2.106-2.085.916.916,0,0,1,.074-1.338.906.906,0,0,1,1.333-.121c.754.671,1.453,1.4,2.15,2.135A2.5,2.5,0,0,1,6052.625-1751.5Z" transform="translate(-141.755 -20.059)"/>
      <path class="a" d="M6314.789-1317.765c-.187.241-.359.668-.652.782a1.312,1.312,0,0,1-1.113-.107,19.28,19.28,0,0,1-2.064-2.033.945.945,0,0,1,.041-1.347.891.891,0,0,1,1.277-.172c.809.7,1.538,1.494,2.283,2.265C6314.669-1318.264,6314.683-1318.061,6314.789-1317.765Z" transform="translate(-370.013 -397.712)"/>
      <path class="a" d="M6334.128-1346.376a1.048,1.048,0,0,1,1.177.838.985.985,0,0,1-.729,1.2c-.837.184-1.684.334-2.533.444a.944.944,0,0,1-1.093-.784.972.972,0,0,1,.7-1.211C6332.5-1346.1,6333.373-1346.233,6334.128-1346.376Z" transform="translate(-387.615 -375.48)"/>
      <path class="a" d="M6086.217-1774.51c.128-.706.257-1.534.436-2.351a.988.988,0,0,1,1.178-.76.909.909,0,0,1,.844,1.036,22.537,22.537,0,0,1-.475,2.655.956.956,0,0,1-1.228.662A1.052,1.052,0,0,1,6086.217-1774.51Z" transform="translate(-174.565)"/>
      <path class="a" d="M6026.638-1714.429a1.033,1.033,0,0,1-1.175-.809.994.994,0,0,1,.708-1.21c.834-.191,1.682-.34,2.531-.45a.982.982,0,0,1,1.122.827.994.994,0,0,1-.75,1.185C6028.24-1714.694,6027.391-1714.567,6026.638-1714.429Z" transform="translate(-121.646 -52.876)"/>
      <path class="a" d="M5928.786-1380.058a3.09,3.09,0,0,1-3.117-3.094,3.088,3.088,0,0,1,3.044-3.1,3.1,3.1,0,0,1,3.151,3.061A3.094,3.094,0,0,1,5928.786-1380.058Zm0-4.128a1.079,1.079,0,0,0-1.052,1.009,1.081,1.081,0,0,0,1.01,1.052,1.077,1.077,0,0,0,1.051-1.008A1.078,1.078,0,0,0,5928.787-1384.186Z" transform="translate(-34.787 -340.762)"/>
    </g>
    <rect class="b" width="70" height="70" transform="translate(1194 3181)"/>
  </g>
</svg>