<svg xmlns="http://www.w3.org/2000/svg" width="70" height="70" viewBox="0 0 70 70">
  <defs>
    <style>.a{fill:#5e72e4;}.b{fill:none;}</style>
  </defs>
  <g transform="translate(-1194 -3373)">
    <g transform="translate(-3609.348 5084.475)">
      <path class="a" d="M4812.357-1688.71a40.145,40.145,0,0,0,9.416-3.194,18.9,18.9,0,0,0,7.352-5.8,17.838,17.838,0,0,0,1.467-2.794c.146-.315.243-.476.623-.474,4.734.014,9.467.006,14.2.023a.66.66,0,0,1,.515.307,13.272,13.272,0,0,0,5.147,6.492,33.851,33.851,0,0,0,12.359,5.254c.249.059.5.121.806.2v.706q0,6.452,0,12.9a25.954,25.954,0,0,1-21.124,25.584,25.978,25.978,0,0,1-30.319-20.715,26.078,26.078,0,0,1-.421-4.44c-.055-4.5-.021-8.992-.021-13.488Zm2.093,1.851c0,.012-.02.182-.02.352,0,3.847-.066,7.7.027,11.541a28.007,28.007,0,0,0,.63,5.32,23.831,23.831,0,0,0,30.463,17.356,23.855,23.855,0,0,0,16.617-22.786c.03-3.8.005-7.608,0-11.412,0-.187-.023-.374-.035-.555a38.53,38.53,0,0,1-10.068-3.949c-3.179-1.866-5.938-4.165-7.577-7.584a.785.785,0,0,0-.6-.3c-3.717-.018-7.435-.006-11.152-.023a.732.732,0,0,0-.726.468,21.353,21.353,0,0,1-1.664,2.613,21.572,21.572,0,0,1-8.621,6.247C4819.375-1688.565,4816.934-1687.776,4814.45-1686.859Z" transform="translate(0 0)"/>
      <path class="a" d="M4940.932-1573.861l1.4,1.441-17.216,17.216-7.327-7.348,1.37-1.336,5.848,5.956Z" transform="translate(-91.732 -110.587)"/>
      <path class="a" d="M5126.332-1501.071h2.076a21.748,21.748,0,0,1-6.224,15.23l-1.455-1.509a19.774,19.774,0,0,0,4.12-6.283A20.667,20.667,0,0,0,5126.332-1501.071Z" transform="translate(-268.298 -173.915)"/>
      <path class="a" d="M5096.613-1382.8l-1.155-1.75,1.982-1.5,1.359,1.632Z" transform="translate(-246.311 -273.983)"/>
    </g>
    <rect class="b" width="70" height="70" transform="translate(1194 3373)"/>
  </g>
</svg>